<svg width="24" height="24" viewBox="0 0 24 24" fill="none" xmlns="http://www.w3.org/2000/svg">
<path d="M17.4482 5.21973C17.7411 4.92698 18.2159 4.92694 18.5088 5.21973C18.8016 5.51258 18.8016 5.98737 18.5088 6.28027L12.6738 12.1143L18.5078 17.9482C18.8007 18.2411 18.8007 18.7159 18.5078 19.0088C18.2149 19.3013 17.74 19.3015 17.4473 19.0088L11.6143 13.1748L5.78125 19.0088C5.48836 19.3017 5.01262 19.3017 4.71973 19.0088C4.42706 18.716 4.42733 18.2412 4.71973 17.9482L10.5527 12.1143L4.71973 6.28027C4.4269 5.98737 4.42686 5.5126 4.71973 5.21973C5.01261 4.92698 5.48742 4.92694 5.78027 5.21973L11.6133 11.0537L17.4482 5.21973Z" fill="white"/>
</svg>
