<svg width="24" height="24" viewBox="0 0 24 24" fill="none" xmlns="http://www.w3.org/2000/svg">
<path d="M12 8.99902C13.6569 8.99902 15 10.3422 15 11.999C15 13.6559 13.6569 14.999 12 14.999C10.3431 14.999 9 13.6559 9 11.999C9 10.3422 10.3431 8.99902 12 8.99902Z" fill="white"/>
<path fill-rule="evenodd" clip-rule="evenodd" d="M12 2C12.3814 2 12.6973 2.31587 12.6973 2.69727V4.59473C16.2414 4.9203 19.0694 7.75762 19.4043 11.3018H21.3027C21.6839 11.302 22 11.6187 22 12C21.9997 12.381 21.6838 12.697 21.3027 12.6973H19.4043C19.0787 16.2414 16.2414 19.0694 12.6973 19.4043V21.3018C12.6973 21.6832 12.3814 22 12 22C11.6186 22 11.3027 21.6832 11.3027 21.3018V19.4043C7.75859 19.0787 4.93064 16.2414 4.5957 12.6973H2.69727C2.31622 12.697 2.00027 12.381 2 12C2 11.6187 2.31605 11.302 2.69727 11.3018H4.5957C4.92133 7.75762 7.75859 4.92961 11.3027 4.59473V2.69727C11.3027 2.31587 11.6186 2 12 2ZM12 6.41797C8.91748 6.41797 6.41895 8.91748 6.41895 12C6.41921 15.0823 8.91764 17.5811 12 17.5811C15.0824 17.5811 17.5808 15.0823 17.5811 12C17.5811 8.91748 15.0825 6.41797 12 6.41797Z" fill="white"/>
</svg>
