<svg width="25" height="25" viewBox="0 0 25 25" fill="none" xmlns="http://www.w3.org/2000/svg">
<path d="M13.2002 2.5C14.3001 2.50012 15.2603 3.07033 15.7803 3.99023C16.8119 4.48281 17.677 5.2672 18.2734 6.23438L21.5137 2.99512C21.787 2.72178 22.2305 2.72176 22.5039 2.99512C22.7769 3.26841 22.7769 3.71107 22.5039 3.98438L18.8916 7.5957C18.8933 7.60113 18.8939 7.60687 18.8955 7.6123L7.80078 18.707C7.79535 18.7054 7.78961 18.7048 7.78418 18.7031L3.69434 22.7939C3.42103 23.067 2.97838 23.067 2.70508 22.7939C2.43171 22.5206 2.43171 22.0771 2.70508 21.8037L6.41211 18.0957C6.06619 17.8279 5.80387 17.4812 5.66016 17.0801C5.41016 16.4001 5.50039 15.6602 5.90039 14.9902L6.91016 13.3203C7.12015 12.9603 7.30957 12.2596 7.30957 11.8496V9.32031C7.30957 7.00031 8.66035 4.98953 10.6104 4.01953C11.1304 3.08986 12.1104 2.5 13.2002 2.5ZM10.79 20.5498C11.0199 20.5798 11.2601 20.6099 11.5 20.6299C12.0698 20.6799 12.6497 20.71 13.2295 20.71C13.7995 20.71 14.3697 20.6799 14.9297 20.6299C15.1397 20.6099 15.3498 20.6003 15.5498 20.5703C15.7097 20.5503 15.8701 20.5298 16.04 20.5098C15.6201 21.6697 14.5098 22.4998 13.21 22.5C12.4201 22.5 11.6398 22.1802 11.0898 21.6104C10.7698 21.3104 10.5296 20.91 10.3896 20.5C10.5196 20.52 10.6501 20.5298 10.79 20.5498ZM19.126 8.7959C19.1415 8.9687 19.1504 9.14356 19.1504 9.32031V11.8496C19.1504 12.2596 19.3398 12.9601 19.5498 13.3301L20.5498 14.9902C20.9397 15.6302 21.01 16.3901 20.75 17.0801C20.49 17.77 19.95 18.3003 19.25 18.5303C17.31 19.1803 15.2695 19.5 13.2295 19.5C11.78 19.5 10.3315 19.3346 8.91797 19.0039L19.126 8.7959Z" fill="white"/>
</svg>
