<svg width="24" height="24" viewBox="0 0 24 24" fill="none" xmlns="http://www.w3.org/2000/svg">
<path d="M10.9707 2.05957C11.5407 1.84957 12.471 1.84957 13.041 2.05957L18.541 4.11914C19.591 4.51916 20.4504 5.75967 20.4404 6.88965L20.4404 14.9893C20.4404 15.7993 19.9107 16.8596 19.2607 17.3496L13.7607 21.46C12.7907 22.1898 11.2004 22.1899 10.2305 21.46L4.73047 17.3496C4.08056 16.8695 3.55078 15.7992 3.55078 14.9893L3.55078 6.88965C3.55078 5.75965 4.4107 4.51914 5.4707 4.11914L10.9707 2.05957ZM15.4912 8.64941C15.2012 8.35943 14.7207 8.35945 14.4307 8.64941L10.6611 12.4199L9.58105 11.3398C9.29105 11.0498 8.81051 11.0498 8.52051 11.3398C8.23084 11.6298 8.23083 12.1095 8.52051 12.3994L10.1211 14.0195C10.271 14.1693 10.4606 14.2392 10.6504 14.2393C10.8404 14.2393 11.0307 14.1695 11.1807 14.0195L15.4805 9.71973C15.7804 9.42977 15.7811 8.93943 15.4912 8.64941Z" fill="white"/>
</svg>
