<svg width="24" height="24" viewBox="0 0 24 24" fill="none" xmlns="http://www.w3.org/2000/svg">
<path d="M12.0563 24.0005C10.8692 24.0005 9.73826 23.6705 8.67947 23.03C8.38269 22.8456 8.26238 22.4088 8.41478 22.0497C8.56718 21.6906 8.92813 21.545 9.22491 21.7294C10.9575 22.7873 13.0429 22.8067 14.7915 21.7877C15.0883 21.613 15.4493 21.7683 15.5936 22.1274C15.738 22.4865 15.6097 22.9232 15.3129 23.0979C14.2862 23.6996 13.1953 24.0005 12.0563 24.0005Z" fill="white"/>
<path d="M4.96007 6.75657C5.79884 5.81019 6.80521 5.14171 7.95567 4.75023C8.2812 4.64392 8.64055 4.85659 8.75844 5.2318C8.87634 5.60702 8.71275 5.99763 8.38723 6.10394C6.49856 6.7377 5.01286 8.38655 4.41752 10.5006C4.31757 10.8606 3.965 11.0386 3.63741 10.9C3.30983 10.7614 3.12616 10.3505 3.22611 9.99047C3.57355 8.74682 4.15531 7.66459 4.96007 6.75657Z" fill="white"/>
<path d="M19.039 6.75657C18.2002 5.81019 17.1938 5.14171 16.0434 4.75023C15.7178 4.64392 15.3585 4.85659 15.2406 5.2318C15.1227 5.60702 15.2863 5.99763 15.6118 6.10394C17.5005 6.7377 18.9862 8.38655 19.5815 10.5006C19.6815 10.8606 20.034 11.0386 20.3616 10.9C20.6892 10.7614 20.8729 10.3505 20.7729 9.99047C20.4255 8.74682 19.8437 7.66459 19.039 6.75657Z" fill="white"/>
<path d="M8.99219 6.71387C10.8526 5.59944 13.7677 5.59944 15.6182 6.71387C16.4934 7.24407 17.0009 7.99889 17.001 8.80762C17.001 9.60748 16.5036 10.3809 15.6182 10.9111C14.693 11.4683 13.4985 11.7559 12.3047 11.7559C11.111 11.7558 9.91728 11.4772 8.99219 10.9111C8.11672 10.3809 7.60938 9.62527 7.60938 8.81641C7.60954 8.0167 8.10696 7.24403 8.99219 6.71387ZM12.3047 0C13.8262 0 15.074 1.24707 15.0742 2.76855C15.0659 4.27356 13.8932 5.48819 12.3965 5.53809C12.3965 5.52977 12.396 5.5293 12.3877 5.5293H12.2803C10.7088 5.47941 9.53613 4.26524 9.53613 2.76855C9.53631 1.23886 10.7833 0.000174036 12.3047 0Z" fill="white"/>
<path d="M15.9902 17.7832C17.8506 16.6688 20.7658 16.6688 22.6162 17.7832C23.4915 18.3134 23.9989 19.0682 23.999 19.877C23.999 20.6768 23.5016 21.4502 22.6162 21.9805C21.691 22.5377 20.4966 22.8252 19.3027 22.8252C18.1091 22.8251 16.9153 22.5466 15.9902 21.9805C15.1148 21.4502 14.6074 20.6946 14.6074 19.8857C14.6076 19.086 15.105 18.3134 15.9902 17.7832ZM19.3027 11.0693C20.8243 11.0693 22.0721 12.3164 22.0723 13.8379C22.064 15.3429 20.8912 16.5575 19.3945 16.6074C19.3945 16.5991 19.3941 16.5986 19.3857 16.5986H19.2783C17.7068 16.5487 16.5342 15.3346 16.5342 13.8379C16.5344 12.3082 17.7814 11.0695 19.3027 11.0693Z" fill="white"/>
<path d="M1.38281 17.7832C3.24319 16.6688 6.15836 16.6688 8.00879 17.7832C8.88406 18.3134 9.39153 19.0682 9.3916 19.877C9.3916 20.6768 8.89418 21.4502 8.00879 21.9805C7.08358 22.5377 5.88913 22.8252 4.69531 22.8252C3.50167 22.8251 2.30791 22.5466 1.38281 21.9805C0.507343 21.4502 0 20.6946 0 19.8857C0.000161579 19.086 0.497584 18.3134 1.38281 17.7832ZM4.69531 11.0693C6.21684 11.0693 7.46467 12.3164 7.46484 13.8379C7.45653 15.3429 6.2838 16.5575 4.78711 16.6074C4.78711 16.5991 4.78664 16.5986 4.77832 16.5986H4.6709C3.09938 16.5487 1.92676 15.3346 1.92676 13.8379C1.92693 12.3082 3.17393 11.0695 4.69531 11.0693Z" fill="white"/>
</svg>
