<svg width="54" height="54" viewBox="0 0 54 54" fill="none" xmlns="http://www.w3.org/2000/svg">
<path d="M0 27C0 12.0883 12.0883 0 27 0C41.9117 0 54 12.0883 54 27C54 41.9117 41.9117 54 27 54C12.0883 54 0 41.9117 0 27Z" fill="url(#paint0_linear_68_4903)" fill-opacity="0.1"/>
<path d="M27 0.5C41.6355 0.5 53.5 12.3645 53.5 27C53.5 41.6355 41.6355 53.5 27 53.5C12.3645 53.5 0.5 41.6355 0.5 27C0.5 12.3645 12.3645 0.5 27 0.5Z" stroke="white" stroke-opacity="0.1"/>
<path d="M28.0276 17C29.1526 17.003 29.7236 17.009 30.2166 17.023L30.4106 17.03C30.6346 17.038 30.8556 17.048 31.1226 17.06C32.1866 17.11 32.9126 17.278 33.5496 17.525C34.2096 17.779 34.7656 18.123 35.3216 18.678C35.8303 19.1777 36.2238 19.7825 36.4746 20.45C36.7216 21.087 36.8896 21.813 36.9396 22.878C36.9516 23.144 36.9616 23.365 36.9696 23.59L36.9756 23.784C36.9906 24.276 36.9966 24.847 36.9986 25.972L36.9996 26.718V28.028C37.002 28.7574 36.9944 29.4868 36.9766 30.216L36.9706 30.41C36.9626 30.635 36.9526 30.856 36.9406 31.122C36.8906 32.187 36.7206 32.912 36.4746 33.55C36.2238 34.2175 35.8303 34.8223 35.3216 35.322C34.8219 35.8307 34.2171 36.2242 33.5496 36.475C32.9126 36.722 32.1866 36.89 31.1226 36.94L30.4106 36.97L30.2166 36.976C29.7236 36.99 29.1526 36.997 28.0276 36.999L27.2816 37H25.9726C25.2429 37.0026 24.5131 36.9949 23.7836 36.977L23.5896 36.971C23.3522 36.962 23.1149 36.9517 22.8776 36.94C21.8136 36.89 21.0876 36.722 20.4496 36.475C19.7824 36.2241 19.178 35.8306 18.6786 35.322C18.1695 34.8224 17.7757 34.2176 17.5246 33.55C17.2776 32.913 17.1096 32.187 17.0596 31.122L17.0296 30.41L17.0246 30.216C17.0062 29.4868 16.9978 28.7574 16.9996 28.028V25.972C16.9968 25.2426 17.0042 24.5132 17.0216 23.784L17.0286 23.59C17.0366 23.365 17.0466 23.144 17.0586 22.878C17.1086 21.813 17.2766 21.088 17.5236 20.45C17.7753 19.7822 18.1698 19.1774 18.6796 18.678C19.1787 18.1695 19.7828 17.7761 20.4496 17.525C21.0876 17.278 21.8126 17.11 22.8776 17.06C23.1436 17.048 23.3656 17.038 23.5896 17.03L23.7836 17.024C24.5128 17.0062 25.2422 16.9986 25.9716 17.001L28.0276 17ZM26.9996 22C25.6735 22 24.4017 22.5268 23.4641 23.4645C22.5264 24.4021 21.9996 25.6739 21.9996 27C21.9996 28.3261 22.5264 29.5979 23.4641 30.5355C24.4017 31.4732 25.6735 32 26.9996 32C28.3257 32 29.5974 31.4732 30.5351 30.5355C31.4728 29.5979 31.9996 28.3261 31.9996 27C31.9996 25.6739 31.4728 24.4021 30.5351 23.4645C29.5974 22.5268 28.3257 22 26.9996 22ZM26.9996 24C27.3936 23.9999 27.7837 24.0775 28.1477 24.2282C28.5117 24.3789 28.8424 24.5998 29.1211 24.8783C29.3997 25.1569 29.6207 25.4875 29.7715 25.8515C29.9224 26.2154 30 26.6055 30.0001 26.9995C30.0002 27.3935 29.9226 27.7836 29.7719 28.1476C29.6212 28.5116 29.4003 28.8423 29.1218 29.121C28.8432 29.3996 28.5126 29.6206 28.1486 29.7714C27.7847 29.9223 27.3946 29.9999 27.0006 30C26.2049 30 25.4419 29.6839 24.8793 29.1213C24.3167 28.5587 24.0006 27.7956 24.0006 27C24.0006 26.2044 24.3167 25.4413 24.8793 24.8787C25.4419 24.3161 26.2049 24 27.0006 24M32.2506 20.5C31.9191 20.5 31.6011 20.6317 31.3667 20.8661C31.1323 21.1005 31.0006 21.4185 31.0006 21.75C31.0006 22.0815 31.1323 22.3995 31.3667 22.6339C31.6011 22.8683 31.9191 23 32.2506 23C32.5821 23 32.9001 22.8683 33.1345 22.6339C33.3689 22.3995 33.5006 22.0815 33.5006 21.75C33.5006 21.4185 33.3689 21.1005 33.1345 20.8661C32.9001 20.6317 32.5821 20.5 32.2506 20.5Z" fill="white"/>
<defs>
<linearGradient id="paint0_linear_68_4903" x1="0" y1="0" x2="65.1838" y2="26.9903" gradientUnits="userSpaceOnUse">
<stop stop-color="white"/>
<stop offset="1" stop-color="white" stop-opacity="0.25"/>
</linearGradient>
</defs>
</svg>
