<svg width="54" height="54" viewBox="0 0 54 54" fill="none" xmlns="http://www.w3.org/2000/svg">
<path d="M0 27C0 12.0883 12.0883 0 27 0C41.9117 0 54 12.0883 54 27C54 41.9117 41.9117 54 27 54C12.0883 54 0 41.9117 0 27Z" fill="white" fill-opacity="0.2"/>
<path d="M27 0.5C41.6355 0.5 53.5 12.3645 53.5 27C53.5 41.6355 41.6355 53.5 27 53.5C12.3645 53.5 0.5 41.6355 0.5 27C0.5 12.3645 12.3645 0.5 27 0.5Z" stroke="white" stroke-opacity="0.3"/>
<path d="M17.1484 26.8101C22.3951 24.5241 25.8941 23.0168 27.6454 22.2881C32.6444 20.2091 33.6824 19.8481 34.3594 19.8361C34.5094 19.8331 34.8414 19.8701 35.0574 20.0461C35.2394 20.1931 35.2894 20.3931 35.3134 20.5331C35.3374 20.6731 35.3674 20.9921 35.3434 21.2411C35.0734 24.0881 33.9004 30.9951 33.3034 34.1831C33.0514 35.5311 32.5554 35.9831 32.0734 36.0281C31.0284 36.1241 30.2354 35.3381 29.2234 34.6741C27.6384 33.6351 26.7434 32.9881 25.2054 31.9751C23.4284 30.8041 24.5804 30.1601 25.5934 29.1081C25.8584 28.8331 30.4634 24.6441 30.5534 24.2641C30.5634 24.2161 30.5744 24.0391 30.4694 23.9461C30.3644 23.8521 30.2094 23.8841 30.0964 23.9101C29.9371 23.9461 27.4064 25.6188 22.5044 28.9281C21.7851 29.4214 21.1344 29.6618 20.5524 29.6491C19.9094 29.6351 18.6724 29.2861 17.7544 28.9871C16.6264 28.6201 15.7304 28.4271 15.8084 27.8041C15.8491 27.4801 16.2958 27.1488 17.1484 26.8101Z" fill="white"/>
</svg>
